<svg width="174" height="104" viewBox="0 0 174 104" fill="none" xmlns="http://www.w3.org/2000/svg">
<path d="M166.192 30.2882C110.986 28.7724 74.9449 31.5335 58.0686 38.5716C32.7541 49.1288 47.355 68.4743 53.7199 72.528C60.0848 76.5817 69.5747 65.1407 60.8635 62.6832C52.1523 60.2256 39.3589 70.289 32.538 77.6864C27.9907 82.6181 23.0268 89.6408 17.6463 98.7546" stroke="#002E8C" stroke-width="3" stroke-linecap="square"/>
<path fill-rule="evenodd" clip-rule="evenodd" d="M14.4149 101.245C14.6254 101.898 15.5853 102.187 16.5589 101.892L32.4251 97.0692C33.3987 96.7725 34.0174 96.004 33.8069 95.351C33.596 94.6969 32.6362 94.408 31.6625 94.7035L17.5593 98.9907L14.5089 89.5302C14.2984 88.8773 13.3382 88.5872 12.3649 88.8838C11.391 89.1793 10.7726 89.9491 10.9831 90.602L14.4149 101.245Z" fill="#002E8C"/>
</svg>
