<svg width="526" height="492" viewBox="0 0 526 492" fill="none" xmlns="http://www.w3.org/2000/svg">
<path fill-rule="evenodd" clip-rule="evenodd" d="M523.23 486.95C505.004 481.402 491.735 478.411 483.422 477.977C470.953 477.327 392.485 486.95 377.145 486.95C361.806 486.95 272.993 491.991 257.201 491.991C241.408 491.991 167.923 483.718 152.492 483.718C142.206 483.718 91.7093 486.475 1.00305 491.991C7.76392 421.636 11.1444 381.378 11.1444 371.216C11.1444 355.973 1.49524 303.985 1.00305 281.061C0.510803 258.138 8.57739 152.594 8.57739 130.144C8.57739 115.178 6.96185 73.9686 3.73077 6.51569C83.08 14.4746 129.041 18.454 141.613 18.454C160.471 18.454 219.765 3.75244 234.584 3.09451C249.402 2.43655 396.286 6.51569 415.368 6.51569C428.09 6.51569 464.959 4.34659 525.975 0.00842285C522.403 65.7685 520.617 106.58 520.617 122.441C520.617 146.234 526.195 247.818 525.975 268.101C525.755 288.385 517.924 353.944 517.924 371.216C517.924 382.73 519.693 421.309 523.23 486.95Z" fill="white"/>
</svg>
