<svg width="37" height="37" viewBox="0 0 37 37" fill="none" xmlns="http://www.w3.org/2000/svg">
<path d="M10.0969 36.2781C10.5083 35.8053 10.8884 35.3084 11.2908 34.8293C13.0704 32.7085 15.1097 30.8632 17.2977 29.2553C17.478 29.2683 17.597 29.2447 17.6711 29.2874C18.9427 30.0158 20.2049 30.7605 21.4798 31.4843C22.1789 31.881 22.8989 32.2473 23.608 32.6283C24.9027 33.3253 26.2309 33.9846 27.3115 34.9645C28.1142 35.6925 29.2649 35.6732 30.195 36.1176C30.2684 36.1522 30.3915 36.1068 30.4906 36.0877C30.922 36.004 31.2278 35.5761 31.1156 35.1975C31.0762 35.0636 30.9928 34.946 30.9422 34.8153C29.8844 32.0869 28.9164 29.3245 28.2744 26.431C28.13 25.7799 27.9861 25.1294 27.8063 24.4906C27.54 23.5416 27.5982 23.2966 28.4785 22.5644C29.973 21.3222 31.446 20.0644 32.6308 18.5154C33.1018 17.8993 33.6403 17.3226 34.1808 16.7569C34.5031 16.4213 34.8796 16.1319 35.247 15.8412C35.5311 15.6169 35.8384 15.4224 36.1856 15.181C36.17 14.9424 36.184 14.839 36.1541 14.7546C35.7568 13.6218 35.3487 13.3859 34.0841 13.5363C33.731 13.5779 33.3791 13.5942 33.0281 13.636C30.5688 13.9305 28.1093 13.976 25.6491 14.5059C24.4579 14.7627 24.1752 14.5329 23.8358 13.4473C23.2447 11.555 22.6289 9.67104 22.0237 7.78437C21.9791 7.64886 21.9401 7.51172 21.8868 7.38131C21.1073 5.46219 20.3346 3.54049 19.5362 1.63089C19.3951 1.29331 19.205 0.939125 18.9277 0.718565C18.2657 0.194743 17.4398 0.33605 16.6567 0.685063C16.0394 0.96094 16.222 1.52391 16.1703 2.00114C16.0961 2.68571 15.9554 3.36982 15.8727 4.05357C15.7898 4.73353 15.855 5.43423 15.6523 6.08807C15.4225 6.83271 15.382 7.54429 15.3634 8.27688C15.3506 8.76434 15.3719 9.27559 15.2181 9.74245C14.9427 10.5745 14.8977 11.3963 14.8324 12.2259C14.8127 12.4708 14.791 12.7182 14.74 12.9611C14.592 13.6667 14.1259 14.1256 13.4481 14.3865C13.2082 14.4789 12.9533 14.5419 12.7033 14.5804C10.1455 14.975 7.58771 15.422 5.02593 15.5241C3.9243 15.5687 2.82517 15.5676 1.72344 15.6035C1.17329 15.6223 0.850566 15.8672 0.665313 16.3537C0.52329 16.7266 0.623169 16.9706 1.1464 17.2451C1.73175 17.5537 2.36046 17.7902 2.95034 18.0922C4.17596 18.7211 5.3999 19.3552 6.6014 20.02C7.88889 20.7326 9.09629 21.5498 10.1726 22.5353C10.5008 22.8358 10.7265 23.1621 10.6276 23.6601C10.3261 25.1765 10.0973 26.701 9.70802 28.2041C9.37092 29.5059 8.86023 30.7835 8.41102 32.0675C8.02962 33.1599 7.69767 34.2646 7.16304 35.3201C6.84887 35.941 7.04472 36.468 7.6159 36.7822C8.34682 37.1852 9.50602 36.9583 10.0969 36.2781Z" fill="#F5A9AB"/>
</svg>
